<?xml version="1.0" encoding="utf-8"?>
<!-- Generator: Adobe Illustrator 23.0.4, SVG Export Plug-In . SVG Version: 6.00 Build 0)  -->
<svg version="1.1" xmlns="http://www.w3.org/2000/svg" xmlns:xlink="http://www.w3.org/1999/xlink" x="0px" y="0px"
	 viewBox="0 0 100 100" style="enable-background:new 0 0 100 100;" xml:space="preserve">
<style type="text/css">
	.st0{display:none;}
	.st1{display:inline;}
	.st2{fill:#FFFFFF;}
</style>
<g id="Слой_2" class="st0">
	<rect class="st1" width="100" height="100"/>
</g>
<g id="Слой_1">
	<path class="st2" d="M50,0C22.4,0,0,22.4,0,50s22.4,50,50,50s50-22.4,50-50S77.6,0,50,0z M50,89c-3.9,0-7-3.1-7-7s3.1-7,7-7
		s7,3.1,7,7S53.9,89,50,89z M58.4,47.9c-1.3,5.4-3.9,16.9-8.1,17.1c-4.8,0.2-8.3-14.2-9-17.1c-3.3-13.7-3.1-32.2,3-37.5
		C47,8.2,49.8,8,49.8,8s3.4-0.2,6.5,2.4C62.8,15.8,61.2,35.6,58.4,47.9z"/>
</g>
</svg>
